<svg width="336" height="41" viewBox="0 0 336 41" fill="none" xmlns="http://www.w3.org/2000/svg">
<rect x="225.818" y="0.0786133" width="70.8594" height="40.6504" fill="url(#paint0_linear_69_5939)"/>
<path d="M296.678 0.0786133H319.703C327.246 0.0786133 331.017 0.0786133 333.36 2.42176C335.703 4.7649 335.703 8.53614 335.703 16.0786V24.729C335.703 32.2715 335.703 36.0427 333.36 38.3859C331.017 40.729 327.246 40.729 319.703 40.729H296.678V0.0786133Z" fill="url(#paint1_linear_69_5939)"/>
<rect x="179.718" y="0.0786133" width="46.1006" height="40.6504" fill="url(#paint2_linear_69_5939)"/>
<path d="M0.886719 16.0786C0.886719 8.53614 0.886719 4.7649 3.22986 2.42176C5.57301 0.0786133 9.34425 0.0786133 16.8867 0.0786133H179.718V40.729H16.8867C9.34425 40.729 5.57301 40.729 3.22986 38.3859C0.886719 36.0427 0.886719 32.2715 0.886719 24.729V16.0786Z" fill="url(#paint3_linear_69_5939)"/>
<defs>
<linearGradient id="paint0_linear_69_5939" x1="220.077" y1="27.0535" x2="296.71" y2="29.2208" gradientUnits="userSpaceOnUse">
<stop stop-color="#AF2B21"/>
<stop offset="1" stop-color="#C83C31"/>
</linearGradient>
<linearGradient id="paint1_linear_69_5939" x1="291.489" y1="28.5998" x2="338.673" y2="28.5998" gradientUnits="userSpaceOnUse">
<stop stop-color="#E0E0E4"/>
<stop offset="1" stop-color="#C6C6C6"/>
</linearGradient>
<linearGradient id="paint2_linear_69_5939" x1="174.283" y1="20.4038" x2="216.797" y2="20.4038" gradientUnits="userSpaceOnUse">
<stop stop-color="#ED8E1F"/>
<stop offset="1" stop-color="#FBA759"/>
</linearGradient>
<linearGradient id="paint3_linear_69_5939" x1="0.886719" y1="20.4038" x2="179.718" y2="20.4038" gradientUnits="userSpaceOnUse">
<stop stop-color="#229B63"/>
<stop offset="1" stop-color="#2E875D"/>
</linearGradient>
</defs>
</svg>
